<svg width="32" height="32" viewBox="0 0 32 32" xmlns="http://www.w3.org/2000/svg">
  <defs>
    <linearGradient id="feedbackGradient" x1="0%" y1="0%" x2="100%" y2="100%">
      <stop offset="0%" style="stop-color:#32D74B" />
      <stop offset="100%" style="stop-color:#34C759" />
    </linearGradient>
  </defs>
  
  <!-- 对话气泡主体 -->
  <path d="M6 8 Q6 6 8 6 L24 6 Q26 6 26 8 L26 18 Q26 20 24 20 L12 20 L8 24 L8 20 Q6 20 6 18 Z" fill="url(#feedbackGradient)" opacity="0.8"/>
  
  <!-- 对话气泡边框 -->
  <path d="M6 8 Q6 6 8 6 L24 6 Q26 6 26 8 L26 18 Q26 20 24 20 L12 20 L8 24 L8 20 Q6 20 6 18 Z" stroke="url(#feedbackGradient)" stroke-width="1" fill="none"/>
  
  <!-- 文字内容 -->
  <g fill="#ffffff" opacity="0.9">
    <rect x="9" y="9" width="12" height="1" rx="0.5"/>
    <rect x="9" y="11" width="10" height="1" rx="0.5"/>
    <rect x="9" y="13" width="14" height="1" rx="0.5"/>
    <rect x="9" y="15" width="8" height="1" rx="0.5"/>
  </g>
  
  <!-- 发送按钮 -->
  <circle cx="22" cy="17" r="2" fill="#ffffff" opacity="0.3"/>
  <path d="M21 17 L22.5 15.5 L22.5 16.5 L23.5 16.5 L23.5 17.5 L22.5 17.5 L22.5 18.5 Z" fill="url(#feedbackGradient)"/>
  
  <!-- 装饰性元素 -->
  <g opacity="0.4">
    <!-- 小对话气泡 -->
    <circle cx="28" cy="10" r="2" fill="url(#feedbackGradient)"/>
    <path d="M28 12 L29 13 L27 13 Z" fill="url(#feedbackGradient)"/>
    
    <!-- 心形图标 -->
    <path d="M4 12 Q4 10 6 10 Q8 10 8 12 Q8 10 10 10 Q12 10 12 12 Q12 14 8 18 Q4 14 4 12 Z" fill="url(#feedbackGradient)" opacity="0.6" transform="scale(0.3) translate(20, 60)"/>
  </g>
  
  <!-- 动画效果 -->
  <g opacity="0.6">
    <circle cx="16" cy="26" r="1" fill="url(#feedbackGradient)">
      <animate attributeName="r" values="1;3;1" dur="2s" repeatCount="indefinite"/>
      <animate attributeName="opacity" values="0.6;0.1;0.6" dur="2s" repeatCount="indefinite"/>
    </circle>
  </g>
</svg>