<svg width="32" height="32" viewBox="0 0 32 32" xmlns="http://www.w3.org/2000/svg">
  <defs>
    <linearGradient id="logsGradient" x1="0%" y1="0%" x2="100%" y2="100%">
      <stop offset="0%" style="stop-color:#FF9500" />
      <stop offset="100%" style="stop-color:#FF6B35" />
    </linearGradient>
  </defs>
  
  <!-- 文档背景 -->
  <rect x="6" y="4" width="20" height="24" rx="3" fill="#ffffff" stroke="url(#logsGradient)" stroke-width="1.5"/>
  
  <!-- 文档内容线条 -->
  <g stroke="url(#logsGradient)" stroke-width="1" opacity="0.6">
    <line x1="10" y1="10" x2="22" y2="10" stroke-linecap="round"/>
    <line x1="10" y1="13" x2="20" y2="13" stroke-linecap="round"/>
    <line x1="10" y1="16" x2="22" y2="16" stroke-linecap="round"/>
    <line x1="10" y1="19" x2="18" y2="19" stroke-linecap="round"/>
    <line x1="10" y1="22" x2="21" y2="22" stroke-linecap="round"/>
  </g>
  
  <!-- 时间戳图标 -->
  <circle cx="24" cy="8" r="4" fill="url(#logsGradient)" opacity="0.1" stroke="url(#logsGradient)" stroke-width="1"/>
  <circle cx="24" cy="8" r="2" fill="none" stroke="url(#logsGradient)" stroke-width="1"/>
  <line x1="24" y1="8" x2="24" y2="6" stroke="url(#logsGradient)" stroke-width="1" stroke-linecap="round"/>
  <line x1="24" y1="8" x2="25.5" y2="9.5" stroke="url(#logsGradient)" stroke-width="1" stroke-linecap="round"/>
  
  <!-- 状态指示器 -->
  <g fill="url(#logsGradient)">
    <circle cx="8" cy="10" r="1" fill="#34C759"/>
    <circle cx="8" cy="13" r="1" fill="#FF9500"/>
    <circle cx="8" cy="16" r="1" fill="#34C759"/>
    <circle cx="8" cy="19" r="1" fill="#FF3B30"/>
    <circle cx="8" cy="22" r="1" fill="#34C759"/>
  </g>
  
  <!-- 搜索图标 -->
  <circle cx="20" cy="24" r="2" fill="none" stroke="url(#logsGradient)" stroke-width="1"/>
  <line x1="21.5" y1="25.5" x2="23" y2="27" stroke="url(#logsGradient)" stroke-width="1" stroke-linecap="round"/>
</svg>