<svg width="32" height="32" viewBox="0 0 32 32" xmlns="http://www.w3.org/2000/svg">
  <defs>
    <linearGradient id="rankingGradient" x1="0%" y1="0%" x2="100%" y2="100%">
      <stop offset="0%" style="stop-color:#FF6B35" />
      <stop offset="100%" style="stop-color:#F7931E" />
    </linearGradient>
  </defs>
  
  <!-- 奖杯底座 -->
  <rect x="13" y="22" width="6" height="3" rx="1" fill="url(#rankingGradient)" opacity="0.3"/>
  
  <!-- 奖杯主体 -->
  <path d="M12 18 L12 12 Q12 10 14 10 L18 10 Q20 10 20 12 L20 18 Q20 20 18 20 L14 20 Q12 20 12 18 Z" fill="url(#rankingGradient)" opacity="0.8"/>
  
  <!-- 奖杯手柄 -->
  <path d="M10 14 Q8 14 8 16 Q8 18 10 18" stroke="url(#rankingGradient)" stroke-width="1.5" fill="none"/>
  <path d="M22 14 Q24 14 24 16 Q24 18 22 18" stroke="url(#rankingGradient)" stroke-width="1.5" fill="none"/>
  
  <!-- 奖杯装饰 -->
  <circle cx="16" cy="15" r="2" fill="#ffffff" opacity="0.3"/>
  <text x="16" y="17" text-anchor="middle" font-family="-apple-system, BlinkMacSystemFont, sans-serif" font-size="8" font-weight="700" fill="url(#rankingGradient)">1</text>
  
  <!-- 排行榜列表 -->
  <g fill="url(#rankingGradient)" opacity="0.6">
    <!-- 第一名 -->
    <rect x="4" y="6" width="8" height="1" rx="0.5"/>
    <circle cx="2" cy="6.5" r="1" fill="#FFD700"/>
    <text x="2" y="7.5" text-anchor="middle" font-family="-apple-system, BlinkMacSystemFont, sans-serif" font-size="4" font-weight="600" fill="#ffffff">1</text>
    
    <!-- 第二名 -->
    <rect x="4" y="8" width="6" height="1" rx="0.5"/>
    <circle cx="2" cy="8.5" r="1" fill="#C0C0C0"/>
    <text x="2" y="9.5" text-anchor="middle" font-family="-apple-system, BlinkMacSystemFont, sans-serif" font-size="4" font-weight="600" fill="#ffffff">2</text>
    
    <!-- 第三名 -->
    <rect x="4" y="10" width="7" height="1" rx="0.5"/>
    <circle cx="2" cy="10.5" r="1" fill="#CD7F32"/>
    <text x="2" y="11.5" text-anchor="middle" font-family="-apple-system, BlinkMacSystemFont, sans-serif" font-size="4" font-weight="600" fill="#ffffff">3</text>
  </g>
  
  <!-- 星星装饰 -->
  <g fill="url(#rankingGradient)" opacity="0.4">
    <path d="M26 8 L27 10 L29 10 L27.5 11.5 L28 14 L26 12.5 L24 14 L24.5 11.5 L23 10 L25 10 Z"/>
    <path d="M28 20 L28.5 21 L30 21 L29 22 L29.5 23.5 L28 22.5 L26.5 23.5 L27 22 L26 21 L27.5 21 Z"/>
  </g>
</svg>