<svg width="32" height="32" viewBox="0 0 32 32" xmlns="http://www.w3.org/2000/svg">
  <defs>
    <linearGradient id="settingsGradient" x1="0%" y1="0%" x2="100%" y2="100%">
      <stop offset="0%" style="stop-color:#8E8E93" />
      <stop offset="100%" style="stop-color:#636366" />
    </linearGradient>
  </defs>
  
  <!-- 齿轮外圈 -->
  <path d="M16 4 L18.5 6.5 L22 6 L23 9.5 L26.5 10.5 L26 14 L28.5 16.5 L26 19 L26.5 21.5 L23 22.5 L22 26 L18.5 25.5 L16 28 L13.5 25.5 L10 26 L9 22.5 L5.5 21.5 L6 19 L3.5 16.5 L6 14 L5.5 10.5 L9 9.5 L10 6 L13.5 6.5 Z" 
        fill="url(#settingsGradient)" opacity="0.1" stroke="url(#settingsGradient)" stroke-width="1"/>
  
  <!-- 齿轮内圈 -->
  <circle cx="16" cy="16" r="6" fill="none" stroke="url(#settingsGradient)" stroke-width="1.5"/>
  
  <!-- 中心圆 -->
  <circle cx="16" cy="16" r="3" fill="url(#settingsGradient)"/>
  
  <!-- 齿轮齿 -->
  <g fill="url(#settingsGradient)">
    <rect x="15" y="2" width="2" height="4" rx="1"/>
    <rect x="15" y="26" width="2" height="4" rx="1"/>
    <rect x="2" y="15" width="4" height="2" rx="1"/>
    <rect x="26" y="15" width="4" height="2" rx="1"/>
    
    <rect x="24.5" y="5.5" width="2" height="3" rx="1" transform="rotate(45 25.5 7)"/>
    <rect x="5.5" y="23.5" width="2" height="3" rx="1" transform="rotate(45 6.5 25)"/>
    <rect x="5.5" y="5.5" width="2" height="3" rx="1" transform="rotate(-45 6.5 7)"/>
    <rect x="24.5" y="23.5" width="2" height="3" rx="1" transform="rotate(-45 25.5 25)"/>
  </g>
</svg>