<svg xmlns="http://www.w3.org/2000/svg" viewBox="0 0 100 100" width="100" height="100">
  <defs>
    <linearGradient id="edgeGradient" x1="0%" y1="0%" x2="100%" y2="100%">
      <stop offset="0%" style="stop-color:#0078D4;stop-opacity:1" />
      <stop offset="100%" style="stop-color:#106EBE;stop-opacity:1" />
    </linearGradient>
  </defs>
  <circle cx="50" cy="50" r="45" fill="url(#edgeGradient)" stroke="#fff" stroke-width="2"/>
  <path d="M25 40 Q25 25 40 25 Q55 25 65 35 Q75 45 70 60 Q65 75 50 75 Q35 75 25 65 Q15 55 20 40 Q25 25 40 30 Q55 35 60 50 Q55 65 40 65 Q25 65 25 50" fill="#fff"/>
  <path d="M40 40 Q50 35 60 40 Q65 45 60 55 Q55 60 45 60 Q35 60 35 50 Q35 40 40 40 Z" fill="#0078D4"/>
</svg>