<svg xmlns="http://www.w3.org/2000/svg" viewBox="0 0 100 100" width="100" height="100">
  <defs>
    <linearGradient id="macGradient" x1="0%" y1="0%" x2="100%" y2="100%">
      <stop offset="0%" style="stop-color:#A8A8A8;stop-opacity:1" />
      <stop offset="100%" style="stop-color:#666666;stop-opacity:1" />
    </linearGradient>
  </defs>
  <circle cx="50" cy="50" r="45" fill="url(#macGradient)" stroke="#fff" stroke-width="2"/>
  <path d="M40 25 C35 25 30 30 30 35 C30 40 35 45 40 45 C42 45 44 44 45 42 C46 44 48 45 50 45 C55 45 60 40 60 35 C60 30 55 25 50 25 C48 25 46 26 45 28 C44 26 42 25 40 25 Z" fill="#fff"/>
  <path d="M45 45 C45 50 45 55 45 60 C45 65 40 70 35 70 C30 70 25 65 25 60 C25 55 30 50 35 50 C37 50 39 51 40 52 C41 51 43 50 45 50" fill="#fff"/>
</svg>